<?xml version="1.0" encoding="utf-8"?>
<!-- Generator: Fusion 360, Shaper Origin Export Add-In, Version 1.6.10  -->
<svg xmlns="http://www.w3.org/2000/svg" xmlns:xlink="http://www.w3.org/1999/xlink" xmlns:shaper="http://www.shapertools.com/namespaces/shaper" shaper:fusionaddin="version:1.6.10" width="22.413239cm" height="11.0491521cm" version="1.1" x="0cm" y="0cm" viewBox="0 0 22.413239 11.0491521" enable-background="new 0 0 22.413239 11.0491521" xml:space="preserve"><path d="M11.2066195,1.349152 L11.2066195,-6.4999999 11.2066195,-6.7000001 8.2066195,-6.7000001 -8.2066194,-6.7000001 -11.2066194,-6.7000001 -11.2066194,-6.5000001 -11.2066195,4.3491518 11.0066194,4.349152 11.2066194,4.349152 11.2066195,1.349152z" transform="matrix(1,0,0,-1,11.2066195,4.349152)" fill="rgb(0,0,0)" shaper:cutDepth="0.00524" stroke-linecap="round" stroke-linejoin="round" /><path d="M5.2566195,-3 a0.45,0.45 0 1,1 0.9,0 a0.45,0.45 0 1,1 -0.9,0z" transform="matrix(1,0,0,-1,11.2066195,4.349152)" fill="rgb(255,255,255)" stroke="rgb(0,0,0)" stroke-width="0.0010cm" stroke-linecap="round" stroke-linejoin="round" shaper:cutDepth="0.00524" /><path d="M-2.6933806,3 a0.45,0.45 0 1,1 0.9,0 a0.45,0.45 0 1,1 -0.9,0z" transform="matrix(1,0,0,-1,11.2066195,4.349152)" fill="rgb(255,255,255)" stroke="rgb(0,0,0)" stroke-width="0.0010cm" stroke-linecap="round" stroke-linejoin="round" shaper:cutDepth="0.00524" /><path d="M-3.1623093,0.6 L-9.1623093,0.5999999 -9.1623093,3.5999999 -3.1623093,3.6 -3.1623093,0.6z" transform="matrix(1,0,0,-1,11.2066195,4.349152)" fill="rgb(255,255,255)" stroke="rgb(0,0,0)" stroke-width="0.0010cm" stroke-linecap="round" stroke-linejoin="round" shaper:cutDepth="0.00524" /><path d="M-9.1623092,-5.6000001 L-9.1623093,-0.6000001 -3.1623093,-0.6 -3.1623092,-5.6 -9.1623092,-5.6000001z" transform="matrix(1,0,0,-1,11.2066195,4.349152)" fill="rgb(255,255,255)" stroke="rgb(0,0,0)" stroke-width="0.0010cm" stroke-linecap="round" stroke-linejoin="round" shaper:cutDepth="0.00524" /><path d="M-1.2433805,-5.6 L-1.2433805,-0.6 4.7646103,-0.6 4.7646104,-5.6 -1.2433805,-5.6z" transform="matrix(1,0,0,-1,11.2066195,4.349152)" fill="rgb(255,255,255)" stroke="rgb(0,0,0)" stroke-width="0.0010cm" stroke-linecap="round" stroke-linejoin="round" shaper:cutDepth="0.00524" /><path d="M4.7370863,0.6 L-1.2433805,0.6 -1.2433806,3.6 4.7370863,3.6 4.7370863,0.6z" transform="matrix(1,0,0,-1,11.2066195,4.349152)" fill="rgb(255,255,255)" stroke="rgb(0,0,0)" stroke-width="0.0010cm" stroke-linecap="round" stroke-linejoin="round" shaper:cutDepth="0.00524" /><path d="M6.8013883,-5.5999999 L6.8013883,-0.5999999 10.2566195,-0.5999999 10.2566195,-5.5999999 6.8013883,-5.5999999z" transform="matrix(1,0,0,-1,11.2066195,4.349152)" fill="rgb(255,255,255)" stroke="rgb(0,0,0)" stroke-width="0.0010cm" stroke-linecap="round" stroke-linejoin="round" shaper:cutDepth="0.00524" /><path d="M10.2566194,3.6000001 L10.2566195,0.6000001 6.8013883,0.6000001 6.8013882,3.6000001 10.2566194,3.6000001z" transform="matrix(1,0,0,-1,11.2066195,4.349152)" fill="rgb(255,255,255)" stroke="rgb(0,0,0)" stroke-width="0.0010cm" stroke-linecap="round" stroke-linejoin="round" shaper:cutDepth="0.00524" /><path d="M-10.6433806,1.9999999 a0.45,0.45 0 1,1 0.9,0 a0.45,0.45 0 1,1 -0.9,0z" transform="matrix(1,0,0,-1,11.2066195,4.349152)" fill="rgb(255,255,255)" stroke="rgb(0,0,0)" stroke-width="0.0010cm" stroke-linecap="round" stroke-linejoin="round" shaper:cutDepth="0.00524" /><path d="M-10.6433805,-3.0000001 a0.45,0.45 0 1,1 0.9,0 a0.45,0.45 0 1,1 -0.9,0z" transform="matrix(1,0,0,-1,11.2066195,4.349152)" fill="rgb(255,255,255)" stroke="rgb(0,0,0)" stroke-width="0.0010cm" stroke-linecap="round" stroke-linejoin="round" shaper:cutDepth="0.00524" /><path d="M-2.6933805,-2.8 a0.45,0.45 0 1,1 0.9,0 a0.45,0.45 0 1,1 -0.9,0z" transform="matrix(1,0,0,-1,11.2066195,4.349152)" fill="rgb(255,255,255)" stroke="rgb(0,0,0)" stroke-width="0.0010cm" stroke-linecap="round" stroke-linejoin="round" shaper:cutDepth="0.00524" /><path d="M5.2566194,2.5 a0.45,0.45 0 1,1 0.9,0 a0.45,0.45 0 1,1 -0.9,0z" transform="matrix(1,0,0,-1,11.2066195,4.349152)" fill="rgb(255,255,255)" stroke="rgb(0,0,0)" stroke-width="0.0010cm" stroke-linecap="round" stroke-linejoin="round" shaper:cutDepth="0.00524" /></svg>