<?xml version="1.0" encoding="utf-8"?>
<!-- Generator: Fusion 360, Shaper Origin Export Add-In, Version 1.6.10  -->
<svg xmlns="http://www.w3.org/2000/svg" xmlns:xlink="http://www.w3.org/1999/xlink" xmlns:shaper="http://www.shapertools.com/namespaces/shaper" shaper:fusionaddin="version:1.6.10" width="22.0178287cm" height="11.0957363cm" version="1.1" x="0cm" y="0cm" viewBox="0 0 22.0178287 11.0957363" enable-background="new 0 0 22.0178287 11.0957363" xml:space="preserve"><path d="M11.0089143,5.5478682 L11.0089143,-5.5478682 10.8089143,-5.5478682 -11.0089143,-5.5478682 -11.0089143,5.3478682 -11.0089143,5.5478682 11.0089143,5.5478682z" transform="matrix(1,0,0,-1,11.0089143,5.5478682)" fill="rgb(0,0,0)" shaper:cutDepth="0.00324" stroke-linecap="round" stroke-linejoin="round" /><path d="M-2.8910857,1.6478682 a0.45,0.45 0 1,1 0.9,0 a0.45,0.45 0 1,1 -0.9,0z" transform="matrix(1,0,0,-1,11.0089143,5.5478682)" fill="rgb(255,255,255)" stroke="rgb(0,0,0)" stroke-width="0.0010cm" stroke-linecap="round" stroke-linejoin="round" shaper:cutDepth="0.00324" /><path d="M-1.4410857,-4.6521318 L-1.4410857,-0.1521318 0.9928763,-0.1521318 0.9928763,-4.6521318 -1.4410857,-4.6521318z" transform="matrix(1,0,0,-1,11.0089143,5.5478682)" fill="rgb(255,255,255)" stroke="rgb(0,0,0)" stroke-width="0.0010cm" stroke-linecap="round" stroke-linejoin="round" shaper:cutDepth="0.00324" /><path d="M1.0589143,0.8478682 L-1.4410857,0.8478682 -1.4410857,4.8478682 1.0589143,4.8478682 1.0589143,0.8478682z" transform="matrix(1,0,0,-1,11.0089143,5.5478682)" fill="rgb(255,255,255)" stroke="rgb(0,0,0)" stroke-width="0.0010cm" stroke-linecap="round" stroke-linejoin="round" shaper:cutDepth="0.00324" /><path d="M-9.4410857,-4.6521318 L-9.4410857,-0.1521318 -3.4410857,-0.1521318 -3.4410857,-4.6521318 -9.4410857,-4.6521318z" transform="matrix(1,0,0,-1,11.0089143,5.5478682)" fill="rgb(255,255,255)" stroke="rgb(0,0,0)" stroke-width="0.0010cm" stroke-linecap="round" stroke-linejoin="round" shaper:cutDepth="0.00324" /><path d="M-3.4410857,0.8478682 L-9.4410857,0.8478682 -9.4410857,4.8478682 -3.4410857,4.8478682 -3.4410857,0.8478682z" transform="matrix(1,0,0,-1,11.0089143,5.5478682)" fill="rgb(255,255,255)" stroke="rgb(0,0,0)" stroke-width="0.0010cm" stroke-linecap="round" stroke-linejoin="round" shaper:cutDepth="0.00324" /><path d="M4.5589143,4.8478682 L4.5589143,0.8478682 3.0589143,0.8478682 3.0589143,4.8478682 4.5589143,4.8478682z" transform="matrix(1,0,0,-1,11.0089143,5.5478682)" fill="rgb(255,255,255)" stroke="rgb(0,0,0)" stroke-width="0.0010cm" stroke-linecap="round" stroke-linejoin="round" shaper:cutDepth="0.00324" /><path d="M9.0339143,0.6478682 a0.275,0.275 0 1,1 0.55,0 a0.275,0.275 0 1,1 -0.55,0z" transform="matrix(1,0,0,-1,11.0089143,5.5478682)" fill="rgb(255,255,255)" stroke="rgb(0,0,0)" stroke-width="0.0010cm" stroke-linecap="round" stroke-linejoin="round" shaper:cutDepth="0.00324" /><path d="M9.0339143,4.6478682 a0.275,0.275 0 1,1 0.55,0 a0.275,0.275 0 1,1 -0.55,0z" transform="matrix(1,0,0,-1,11.0089143,5.5478682)" fill="rgb(255,255,255)" stroke="rgb(0,0,0)" stroke-width="0.0010cm" stroke-linecap="round" stroke-linejoin="round" shaper:cutDepth="0.00324" /><path d="M-2.8910857,-4.1521318 a0.45,0.45 0 1,1 0.9,0 a0.45,0.45 0 1,1 -0.9,0z" transform="matrix(1,0,0,-1,11.0089143,5.5478682)" fill="rgb(255,255,255)" stroke="rgb(0,0,0)" stroke-width="0.0010cm" stroke-linecap="round" stroke-linejoin="round" shaper:cutDepth="0.00324" /><path d="M5.1589143,1.8478682 a0.45,0.45 0 1,1 0.9,0 a0.45,0.45 0 1,1 -0.9,0z" transform="matrix(1,0,0,-1,11.0089143,5.5478682)" fill="rgb(255,255,255)" stroke="rgb(0,0,0)" stroke-width="0.0010cm" stroke-linecap="round" stroke-linejoin="round" shaper:cutDepth="0.00324" /><path d="M1.6589143,-1.1021318 a0.45,0.45 0 1,1 0.9,0 a0.45,0.45 0 1,1 -0.9,0z" transform="matrix(1,0,0,-1,11.0089143,5.5478682)" fill="rgb(255,255,255)" stroke="rgb(0,0,0)" stroke-width="0.0010cm" stroke-linecap="round" stroke-linejoin="round" shaper:cutDepth="0.00324" /><path d="M3.0589143,-4.6521318 L3.0589143,-0.1521318 4.5589143,-0.1521318 4.5589143,-4.6521318 3.0589143,-4.6521318z" transform="matrix(1,0,0,-1,11.0089143,5.5478682)" fill="rgb(255,255,255)" stroke="rgb(0,0,0)" stroke-width="0.0010cm" stroke-linecap="round" stroke-linejoin="round" shaper:cutDepth="0.00324" /><path d="M-10.8410857,-3.1521318 a0.45,0.45 0 1,1 0.9,0 a0.45,0.45 0 1,1 -0.9,0z" transform="matrix(1,0,0,-1,11.0089143,5.5478682)" fill="rgb(255,255,255)" stroke="rgb(0,0,0)" stroke-width="0.0010cm" stroke-linecap="round" stroke-linejoin="round" shaper:cutDepth="0.00324" /><path d="M6.5589143,-4.6521318 L6.5589143,-0.1521318 9.5589143,-0.1521318 9.5589143,-4.6521318 6.5589143,-4.6521318z" transform="matrix(1,0,0,-1,11.0089143,5.5478682)" fill="rgb(255,255,255)" stroke="rgb(0,0,0)" stroke-width="0.0010cm" stroke-linecap="round" stroke-linejoin="round" shaper:cutDepth="0.00324" /><path d="M8.7877847,0.8478682 L6.5589143,0.8478682 6.5589143,4.8478682 8.7877847,4.8478682 8.7877847,0.8478682z" transform="matrix(1,0,0,-1,11.0089143,5.5478682)" fill="rgb(255,255,255)" stroke="rgb(0,0,0)" stroke-width="0.0010cm" stroke-linecap="round" stroke-linejoin="round" shaper:cutDepth="0.00324" /><path d="M-10.8410857,1.8478682 a0.45,0.45 0 1,1 0.9,0 a0.45,0.45 0 1,1 -0.9,0z" transform="matrix(1,0,0,-1,11.0089143,5.5478682)" fill="rgb(255,255,255)" stroke="rgb(0,0,0)" stroke-width="0.0010cm" stroke-linecap="round" stroke-linejoin="round" shaper:cutDepth="0.00324" /></svg>